<?xml version="1.0" encoding="UTF-8" standalone="no"?>
<!-- Modified from https://commons.wikimedia.org/wiki/File:Orange_question.svg -->

<!-- Build via inkscape -export-png=nuvola/dropdown/maybe.png -export-background-opacity=0 -without-gui nuvola-dropdown-maybe.svg -->

<svg
   xmlns:dc="http://purl.org/dc/elements/1.1/"
   xmlns:cc="http://creativecommons.org/ns#"
   xmlns:rdf="http://www.w3.org/1999/02/22-rdf-syntax-ns#"
   xmlns:svg="http://www.w3.org/2000/svg"
   xmlns="http://www.w3.org/2000/svg"
   xmlns:xlink="http://www.w3.org/1999/xlink"
   xmlns:sodipodi="http://sodipodi.sourceforge.net/DTD/sodipodi-0.dtd"
   xmlns:inkscape="http://www.inkscape.org/namespaces/inkscape"
   width="48"
   height="48"
   version="1.1"
   id="svg936"
   sodipodi:docname="nuvola-dropdown-maybe.original.svg"
   inkscape:version="0.92.3 (2405546, 2018-03-11)">
  <metadata
     id="metadata940">
    <rdf:RDF>
      <cc:Work
         rdf:about="">
        <dc:format>image/svg+xml</dc:format>
        <dc:type
           rdf:resource="http://purl.org/dc/dcmitype/StillImage" />
      </cc:Work>
    </rdf:RDF>
  </metadata>
  <sodipodi:namedview
     pagecolor="#ffffff"
     bordercolor="#666666"
     borderopacity="1"
     objecttolerance="10"
     gridtolerance="10"
     guidetolerance="10"
     inkscape:pageopacity="0"
     inkscape:pageshadow="2"
     inkscape:window-width="1920"
     inkscape:window-height="963"
     id="namedview938"
     showgrid="false"
     inkscape:zoom="11.761194"
     inkscape:cx="32.25"
     inkscape:cy="34.104061"
     inkscape:window-x="0"
     inkscape:window-y="24"
     inkscape:window-maximized="1"
     inkscape:current-layer="svg936" />
  <defs
     id="defs930">
    <linearGradient
       inkscape:collect="always"
       id="linearGradient964">
      <stop
         style="stop-color:#ffff00;stop-opacity:1;"
         offset="0"
         id="stop960" />
      <stop
         style="stop-color:#ffffff;stop-opacity:0.99823529"
         offset="1"
         id="stop962" />
    </linearGradient>
    <!-- Bevel -->
    <linearGradient
       inkscape:collect="always"
       xlink:href="#linearGradient964"
       id="linearGradient968"
       x1="-2.3801992"
       y1="25.379185"
       x2="-2.3801992"
       y2="14.726474"
       gradientUnits="userSpaceOnUse"
       gradientTransform="matrix(1.2063138,0,0,0.45604674,27.952974,1.7035093)" />
  </defs>
  <path
     inkscape:connector-curvature="0"
     d="m 16,17.784497 c -7.2e-4,-4.41876 3.80507,-8.2848527 8.5,-8.2848527 4.69493,0 8.50072,3.5824637 8.5,8.0012237 0,2.666667 -1.333333,4.666667 -4,6 -2.666667,1.333333 -4.166667,2.833333 -4.5,4.5 -0.333333,1.666667 -0.466667,3 -0.4,4 v 0.389086 M 24.14727,34.059053 24.1,42.437226"
     id="path932-3"
     style="display:inline;fill:none;stroke:#808080;stroke-width:8.24314961;stroke-miterlimit:4;stroke-dasharray:none"
     sodipodi:nodetypes="cscsscccc" />
  <path
     transform="translate(12,5)"
     d="m 4,12.5 a 8.5,8 0 1 1 17,0 q 0,4 -4,6 -4,2 -4.5,4.5 -0.5,2.5 -0.4,4 v 0.2 m 0,2 v 8"
     id="path932"
     style="display:inline;fill:none;stroke:#b0b000;stroke-width:7.48724413;stroke-miterlimit:4;stroke-dasharray:none;stroke-opacity:1"
     inkscape:connector-curvature="0" />
  <path
     d="m 4,12 a 8.5,8 0 1 1 17,0 q 0,4 -4,6 -4,2 -4.5,4.5 -0.5,2.5 -0.4,4 v 0.2 m 0,3 v 7"
     id="path934"
     style="display:inline;fill:none;stroke:#ffff00;stroke-width:6.99968481;stroke-miterlimit:4;stroke-dasharray:none;filter:url(#bevel)"
     transform="translate(12,5)"
     inkscape:connector-curvature="0" />
  <ellipse
     style="display:inline;fill:url(#linearGradient968);fill-opacity:1;stroke-width:5.1917448;stroke-miterlimit:4;stroke-dasharray:none"
     id="path950"
     cx="24.499365"
     cy="9.0095177"
     rx="7.2011423"
     ry="3.4168782" />
</svg>
